<svg  viewBox="0 0 40 40" fill="none" xmlns="http://www.w3.org/2000/svg">
<path d="M20 0C8.9543 0 0 8.9543 0 20C0 31.0457 8.9543 40 20 40C31.0457 40 40 31.0457 40 20C39.9871 8.95961 31.0404 0.0128906 20 0ZM20 38.3334C9.87477 38.3334 1.66664 30.1252 1.66664 20C1.66664 9.87477 9.87477 1.66664 20 1.66664C30.1252 1.66664 38.3334 9.87477 38.3334 20C38.3219 30.1205 30.1205 38.3219 20 38.3334Z" fill="white"/>
<path d="M28.889 10L20 18.889L11.111 10L10 11.1117L18.889 20L10.0001 28.8882L11.111 29.9999L20 21.1109L28.889 30L30 28.8883L21.111 20L30 11.1117L28.889 10Z" fill="white"/>
</svg>
