<svg viewBox="0 0 10 11" fill="none" xmlns="http://www.w3.org/2000/svg">
<path d="M0.331837 8.83789L3.63184 5.53789L0.344337 2.23789C0.294337 2.18789 0.294337 2.11289 0.344337 2.06289L1.40684 1.00039C1.45684 0.950391 1.53184 0.950391 1.58184 1.00039L4.86934 4.30039L8.15684 1.01289C8.20684 0.96289 8.28184 0.96289 8.33184 1.01289L9.39434 2.07539C9.44434 2.12539 9.44434 2.20039 9.39434 2.25039L6.11934 5.53789L9.40684 8.82539C9.45684 8.87539 9.45684 8.95039 9.40684 9.00039L8.34434 10.0629C8.29434 10.1129 8.20684 10.1129 8.16934 10.0629L4.86934 6.77539L1.58184 10.0629C1.53184 10.1129 1.44434 10.1129 1.39434 10.0754L0.331837 9.01289C0.281837 8.96289 0.281837 8.88789 0.331837 8.83789Z" fill="#535763"/>
</svg>
