<svg  viewBox="0 0 18 18" fill="none" xmlns="http://www.w3.org/2000/svg">
<path d="M16.5563 6.1533L6.47167 16.2678C5.9472 16.7773 5.25791 17.062 4.53865 17.062H1.01727C0.822465 17.062 0.64265 16.9871 0.507788 16.8522C0.372927 16.7174 0.312988 16.5376 0.312988 16.3428L0.402896 12.7914C0.417881 12.0872 0.702588 11.4278 1.19708 10.9334L8.34474 3.78575C8.46462 3.66587 8.67441 3.66587 8.79428 3.78575L11.2967 6.27317C11.4615 6.438 11.7013 6.5429 11.956 6.5429C12.5105 6.5429 12.945 6.09336 12.945 5.55392C12.945 5.2842 12.8401 5.04445 12.6753 4.86463C12.6303 4.80469 10.2478 2.43714 10.2478 2.43714C10.0979 2.2873 10.0979 2.03256 10.2478 1.88272L11.2518 0.863771C12.1808 -0.0652675 13.6793 -0.0652675 14.6083 0.863771L16.5563 2.81176C17.4704 3.72581 17.4704 5.22426 16.5563 6.1533" fill="white"/>
</svg>
